<?xml version="1.0" encoding="UTF-8"?>
<svg xmlns="http://www.w3.org/2000/svg" version="1.1" viewBox="0 0 269.64 175.5">
  <defs>
    <style>
      .cls-1 {
        font-family: HelveticaNeue-CondensedBold, 'Helvetica Neue';
        font-size: 38.45px;
        font-weight: 700;
      }

      .cls-1, .cls-2 {
        fill: #fff;
      }

      .cls-3 {
        stroke-dasharray: 3.87 10.63;
      }

      .cls-3, .cls-4 {
        fill: none;
        stroke: #fff;
        stroke-linecap: round;
        stroke-linejoin: round;
        stroke-width: 6px;
      }
    </style>
  </defs>
  <!-- Generator: Adobe Illustrator 28.7.1, SVG Export Plug-In . SVG Version: 1.2.0 Build 142)  -->
  <g>
    <g id="Layer_1">
      <text class="cls-1" transform="translate(-.85 147.14)"><tspan x="0" y="0">SKY ADVENTURES</tspan></text>
      <path class="cls-2" d="M16.76,107.53c-1.16,0-2.32-.06-3.48-.19-7.52-.88-13.15-8.37-11.87-15.83,1.18-6.87,6.46-11.49,13.62-11.84.95-.05,1.31-.28,1.35-1.3.26-5.94,3.1-10.41,8.28-13.19,5.41-2.91,10.84-2.54,16.06.71,1.22.76,1.18.77,2.06-.35,4.44-5.62,10.24-8.18,17.34-7.2,10.03,1.39,16.83,10.55,15.5,20.63-.09.72.08,1.12.79,1.27.28.06.56.17.83.26,8.41,2.86,11.99,13.03,7.17,20.47-2.88,4.44-7.1,6.53-12.35,6.54-9.38.03-18.76,0-28.15,0-9.05,0-18.11,0-27.16,0Z"/>
      <path class="cls-2" d="M206.93,69.84c-2.6,1.68-5.15,3.44-7.83,5-1.34.78-1.58,1.84-1.6,3.18-.06,4.77-.14,9.54-.23,14.31-.03,1.75-3.92,6.26-5.62,6.43-1.43.15-.89-1.08-.93-1.69-.28-5.16-.49-10.32-.69-15.48-.06-1.65.18-3.22-2.47-1.98-1.58.74-3.45-.07-4.36-1.61-.99-1.69-.87-3.67.72-5,1.41-1.19.93-1.61-.36-2.25-4.84-2.4-9.66-4.85-14.48-7.3-.55-.28-1.37-.4-1.46-1.09-.11-.89.85-1.02,1.41-1.39,3.02-2.02,5.98-2.67,9.46-.64,3.07,1.78,6.57,2.81,9.79,4.37,1.94.94,3.33.78,5.16-.52,7.6-5.36,15.36-10.49,23.06-15.69,2.76-1.86,2.77-1.85.31-3.91-10.12-8.47-20.23-16.93-30.35-25.4-2.24-1.87-2.1-2.08.34-3.57,2.1-1.28,3.86-1.07,5.99-.1,7.74,3.52,15.61,6.77,23.32,10.35,2.64,1.23,4.77,1.49,7.19-.43,1.77-1.4,3.4-.74,4.13,1.23.24.65.34,1.35-.21,1.77-1.97,1.55-.38,1.88.76,2.38,1.89.83,3.91,1.46,5.65,2.54,2.7,1.68,4.81,1.05,7.37-.55,5.59-3.49,11.11-7.11,17.03-10.03,2.15-1.06,4.49-1.6,6.91-1.68,4.42-.15,5.8,2,3.78,5.98-1.61,3.19-4.05,5.68-6.96,7.71-5.03,3.49-10.06,6.98-15.15,10.37-1.35.9-1.92,1.91-1.88,3.52.07,2.86-.02,5.72-.07,8.58-.02,1.07-.09,1.99,1.5,1.23,1.45-.7,2.19.36,2.77,1.48.6,1.16.47,2.36-.74,2.86-3.87,1.59-3.92,4.73-3.9,8.23.06,8.34-.13,16.69-.23,25.04-.02,1.99-2.35,5-4.18,5.44-1.38.33-1.33-.87-1.55-1.61-1.38-4.81-2.7-9.64-4.04-14.46-2.28-8.19-4.55-16.38-6.85-24.57-.76-2.72-.85-2.76-3.28-1.2-5.62,3.6-11.22,7.23-16.82,10.85-.14-.22-.29-.45-.43-.67Z"/>
      <g>
        <path class="cls-4" d="M86.59,67.32s.73.02,2-.03"/>
        <path class="cls-3" d="M99.07,65.65c9.09-2.43,20.56-8.35,25-22.77,7.82-25.41-14.66-28.18-14.66-28.18,0,0-17.59.82-16.62,19.39.98,18.57,17.09,43.2,53.76,43.55,10.61.1,16.85.14,20.35.15"/>
        <path class="cls-4" d="M169.62,77.68c-.92-.03-2-.06-2-.06"/>
      </g>
    </g>
  </g>
</svg>